<svg xmlns="http://www.w3.org/2000/svg" viewBox="0 0 59.99 77.86"><defs><style>.cls-1{fill:#39b54a;}</style></defs><g id="Layer_2" data-name="Layer 2"><g id="Layer_1-2" data-name="Layer 1"><path class="cls-1" d="M53.5,77.86H49a6.39,6.39,0,0,1-5.68-3.73q-2.4-4.86-9.06-15.23Q23.18,41.62,18.55,41.62H16.7q0,7.26.19,17.05C17.1,69.19,9.48,77.86,0,77.86H0Q.8,59.8.8,37.13.8,15.37,0,0H0C9.42,0,17,8.6,16.81,19.06q-.11,6.18-.11,12h1.35q2.72,0,13.68-14.71,6.66-8.92,9.16-13.1A6.42,6.42,0,0,1,46.33,0h.82c5.7,0,8.63,7.57,4.7,12.15-.74.87-1.53,1.78-2.37,2.74q-11.64,13.34-17,17v.9q6.28,3.16,19.78,23.62,3.9,5.88,6.58,10.18C61.81,71.34,58.73,77.86,53.5,77.86Z"/></g></g></svg>