<svg id="Layer_1" data-name="Layer 1" xmlns="http://www.w3.org/2000/svg" viewBox="0 0 1280 800"><path d="M968,525.1H514.13a23,23,0,0,1,0-46.08H967.82c7.7.4,11,0,12.11-17.64,4.5-71.66,9.9-144.17,12.82-182.53-98.72-3.74-417.67-5.47-574.89-4.71-14.22.7-23.11-10.19-23.15-22.92a23,23,0,0,1,22.92-23.15c157.2-.88,476.53.94,572.51,1.53a48.77,48.77,0,0,1,48.56,52.78c-2.88,38.2-8.28,110.49-12.78,181.88C1022.54,517.13,988.3,525.1,968,525.1Z"/><path d="M899,406.28H515.09c-13.27,0-24-10.3-24-23s10.73-23,24-23H899c13.26,0,24,10.31,24,23S912.23,406.28,899,406.28Z"/><path d="M892.33,632.51a45.75,45.75,0,1,0,45.73,45.73A45.8,45.8,0,0,0,892.33,632.51Zm0,65.11a19.37,19.37,0,1,1,19.35-19.38A19.38,19.38,0,0,1,892.33,697.62Z"/><path d="M273.89,113.3a16.05,16.05,0,1,0-16,16.06A16.06,16.06,0,0,0,273.89,113.3Z"/><path d="M943.08,583.08c-51.74-.81-113.26-1.08-178.28-1.35-122.35-.54-261-1.13-367.16-5.85-23.33-1.08-39.06-24.21-39.1-45.13L358,128.83v-7.62c-.1-.16-.18-.32-.28-.48C356.19,93.34,331,96,331,96H268.42a18.75,18.75,0,0,1,1,32.81H293.8a18.3,18.3,0,0,1,18.3,18.28l.36,383.73c.09,48.14,36,78.42,83.11,91a288.57,288.57,0,0,0,32.06,4.79c10.54-8.61,23.4-17.4,38-17.4,16.41,0,29.73,8.27,40.72,18.83,7.76.23,15.91,0,17.19,0,77.93,1.29,165.42,2.69,241-.31,21.25-.84,45.38.18,66.74.28h.08c-.44,0-.15,0,21.81,0,15.79-17.23,31.13-19.44,41.89-18.83s19.32,4.85,27.92,10.78c23.1-3.56,42.64-9.91,42.7-13.56A23.08,23.08,0,0,0,943.08,583.08Z"/><path d="M467,632.51a45.75,45.75,0,1,0,45.73,45.73A45.8,45.8,0,0,0,467,632.51Zm0,65.11a19.37,19.37,0,1,1,19.35-19.38A19.39,19.39,0,0,1,467,697.62Z"/></svg>